<svg data-v-423bf9ae="" xmlns="http://www.w3.org/2000/svg" viewBox="0 0 217.0212837499982 60" class="font"><!----><!----><!----><g data-v-423bf9ae="" id="13bc5156-bee7-4304-9d1e-5de3bf25eb12" fill="white" transform="matrix(6.079027426108357,0,0,6.079027426108357,-3.8905741347147114,-4.863222669005431)"><path d="M3.68 3.19L3.68 3.19L3.68 3.19Q4.38 3.19 5.03 3.45L5.03 3.45L5.03 3.45Q5.68 3.71 6.12 4.28L6.12 4.28L6.12 1.62L7.43 1.62L7.43 10.50L6.40 10.50L6.12 9.49L6.12 9.48L6.12 9.48Q5.92 9.83 5.59 10.08L5.59 10.08L5.59 10.08Q5.31 10.30 4.84 10.49L4.84 10.49L4.84 10.49Q4.37 10.67 3.68 10.67L3.68 10.67L3.68 10.67Q2.97 10.67 2.40 10.37L2.40 10.37L2.40 10.37Q1.83 10.07 1.44 9.56L1.44 9.56L1.44 9.56Q1.05 9.06 0.85 8.38L0.85 8.38L0.85 8.38Q0.64 7.70 0.64 6.94L0.64 6.94L0.64 6.94Q0.64 6.19 0.85 5.51L0.85 5.51L0.85 5.51Q1.05 4.83 1.44 4.31L1.44 4.31L1.44 4.31Q1.83 3.79 2.40 3.49L2.40 3.49L2.40 3.49Q2.97 3.19 3.68 3.19ZM3.98 9.60L3.98 9.60L3.98 9.60Q4.40 9.60 4.78 9.44L4.78 9.44L4.78 9.44Q5.17 9.28 5.46 8.95L5.46 8.95L5.46 8.95Q5.75 8.62 5.94 8.12L5.94 8.12L5.94 8.12Q6.12 7.62 6.12 6.94L6.12 6.94L6.12 6.94Q6.12 6.27 5.94 5.77L5.94 5.77L5.94 5.77Q5.75 5.26 5.46 4.93L5.46 4.93L5.46 4.93Q5.17 4.59 4.78 4.42L4.78 4.42L4.78 4.42Q4.40 4.26 3.98 4.26L3.98 4.26L3.98 4.26Q3.58 4.26 3.23 4.42L3.23 4.42L3.23 4.42Q2.88 4.59 2.62 4.93L2.62 4.93L2.62 4.93Q2.35 5.26 2.20 5.77L2.20 5.77L2.20 5.77Q2.04 6.27 2.04 6.94L2.04 6.94L2.04 6.94Q2.04 7.62 2.20 8.12L2.20 8.12L2.20 8.12Q2.35 8.62 2.62 8.95L2.62 8.95L2.62 8.95Q2.88 9.28 3.23 9.44L3.23 9.44L3.23 9.44Q3.58 9.60 3.98 9.60ZM13.31 3.19L13.31 3.19L13.31 3.19Q14.71 3.19 15.36 4.02L15.36 4.02L15.36 4.02Q16.00 4.84 16.00 6.37L16.00 6.37L16.00 10.50L14.67 10.50L14.67 6.73L14.67 6.73Q14.67 5.46 14.35 4.86L14.35 4.86L14.35 4.86Q14.03 4.26 13.22 4.26L13.22 4.26L13.22 4.26Q12.66 4.26 12.24 4.47L12.24 4.47L12.24 4.47Q11.83 4.68 11.55 5.06L11.55 5.06L11.55 5.06Q11.27 5.45 11.13 5.99L11.13 5.99L11.13 5.99Q10.99 6.52 10.99 7.18L10.99 7.18L10.99 10.50L9.67 10.50L9.67 1.62L10.99 1.62L10.99 4.49L10.99 4.49Q11.33 3.92 11.97 3.56L11.97 3.56L11.97 3.56Q12.61 3.19 13.31 3.19ZM21.06 3.19L21.06 3.19L21.06 3.19Q21.83 3.23 22.43 3.51L22.43 3.51L22.43 3.51Q22.68 3.64 22.93 3.82L22.93 3.82L22.93 3.82Q23.18 4.00 23.38 4.27L23.38 4.27L23.38 4.27Q23.58 4.54 23.70 4.89L23.70 4.89L23.70 4.89Q23.81 5.25 23.81 5.73L23.81 5.73L23.81 10.50L22.58 10.50L22.41 9.63L22.41 9.63Q22.41 9.63 22.27 9.80L22.27 9.80L22.27 9.80Q22.13 9.97 21.87 10.16L21.87 10.16L21.87 10.16Q21.60 10.35 21.22 10.51L21.22 10.51L21.22 10.51Q20.83 10.67 20.36 10.67L20.36 10.67L20.36 10.67Q19.19 10.67 18.48 10.14L18.48 10.14L18.48 10.14Q17.77 9.62 17.77 8.46L17.77 8.46L17.77 8.46Q17.77 7.78 18.09 7.34L18.09 7.34L18.09 7.34Q18.41 6.90 18.88 6.64L18.88 6.64L18.88 6.64Q19.35 6.38 19.87 6.29L19.87 6.29L19.87 6.29Q20.40 6.19 20.80 6.19L20.80 6.19L22.50 6.19L22.50 5.71L22.50 5.71Q22.44 5.07 22.16 4.75L22.16 4.75L22.16 4.75Q21.87 4.42 21.45 4.32L21.45 4.32L21.45 4.32Q21.04 4.21 20.56 4.29L20.56 4.29L20.56 4.29Q20.08 4.37 19.66 4.50L19.66 4.50L19.66 4.50Q19.24 4.63 18.93 4.78L18.93 4.78L18.93 4.78Q18.62 4.93 18.54 4.98L18.54 4.98L18.54 3.86L18.54 3.86Q18.93 3.68 19.35 3.53L19.35 3.53L19.35 3.53Q19.71 3.40 20.16 3.30L20.16 3.30L20.16 3.30Q20.61 3.19 21.06 3.19ZM20.47 9.60L20.47 9.60L20.47 9.60Q21.31 9.60 21.84 9.21L21.84 9.21L21.84 9.21Q22.37 8.81 22.50 8.16L22.50 8.16L22.50 7.14L21.76 7.14L21.76 7.14Q21.49 7.14 21.05 7.16L21.05 7.16L21.05 7.16Q20.61 7.18 20.19 7.29L20.19 7.29L20.19 7.29Q19.77 7.41 19.46 7.67L19.46 7.67L19.46 7.67Q19.15 7.92 19.15 8.40L19.15 8.40L19.15 8.40Q19.15 8.69 19.28 8.92L19.28 8.92L19.28 8.92Q19.40 9.14 19.59 9.30L19.59 9.30L19.59 9.30Q19.78 9.45 20.02 9.53L20.02 9.53L20.02 9.53Q20.26 9.60 20.47 9.60ZM29.69 3.19L29.69 3.19L29.69 3.19Q31.09 3.19 31.74 4.02L31.74 4.02L31.74 4.02Q32.38 4.84 32.38 6.37L32.38 6.37L32.38 10.50L31.05 10.50L31.05 6.73L31.05 6.73Q31.05 5.46 30.73 4.86L30.73 4.86L30.73 4.86Q30.41 4.26 29.60 4.26L29.60 4.26L29.60 4.26Q29.04 4.26 28.62 4.47L28.62 4.47L28.62 4.47Q28.21 4.68 27.93 5.06L27.93 5.06L27.93 5.06Q27.65 5.45 27.51 5.99L27.51 5.99L27.51 5.99Q27.37 6.52 27.37 7.18L27.37 7.18L27.37 10.50L26.05 10.50L26.05 3.36L27.16 3.36L27.37 4.49L27.37 4.49Q27.71 3.92 28.35 3.56L28.35 3.56L28.35 3.56Q28.99 3.19 29.69 3.19ZM36.16 3.36L36.16 10.50L34.85 10.50L34.85 3.36L36.16 3.36ZM36.34 1.65L36.34 1.65L36.34 1.65Q36.34 2.02 36.09 2.27L36.09 2.27L36.09 2.27Q35.84 2.52 35.49 2.52L35.49 2.52L35.49 2.52Q35.13 2.52 34.87 2.27L34.87 2.27L34.87 2.27Q34.62 2.02 34.62 1.65L34.62 1.65L34.62 1.65Q34.62 1.30 34.87 1.05L34.87 1.05L34.87 1.05Q35.13 0.80 35.49 0.80L35.49 0.80L35.49 0.80Q35.84 0.80 36.09 1.05L36.09 1.05L36.09 1.05Q36.34 1.30 36.34 1.65Z"></path></g><!----><!----></svg>