<svg xmlns="http://www.w3.org/2000/svg" xmlns:xlink="http://www.w3.org/1999/xlink" preserveAspectRatio="xMidYMid meet" version="1.0" viewBox="-10.2 -0.0 314.4 375.0" zoomAndPan="magnify" style="fill: rgb(0, 0, 0);" role="img" aria-label="Illustration of Ganesha"><g id="__id293_sni2ivc5h6" style="fill: rgb(253, 0, 0);"><path d="m-254.29-64.781c87.759 5.794 177.71-27.495 258.7 59.247-45.769 1.8676-76.858-35.413-138.7 9.3246 20.415 177.46 47.673 126.49 114.29 220-199.17-12.599-135.24-255.77-234.29-288.57z" opacity=".545" transform="translate(113.94 64.06) scale(.2497)" style="fill: inherit;"></path><path d="m630.13-59.066c-87.759 14.03-177.71-16.743-267.28 39.247 49.092 9.7746 98.183-8.937 147.28 29.325-35.933 178.96-48.535 139.35-114.29 220 199.17-12.599 135.24-255.77 234.29-288.57z" opacity=".545" transform="translate(113.94 64.06) scale(.2497)" style="fill: inherit;"></path><path d="m17.143-81.924c3.3708-3.3676 277.56-37.714 331.43 60-109.52-34.337-219.05-27.157-328.57-8.5714-8.7823-16.431-10.495-33.505-2.8571-51.429z" opacity=".545" transform="translate(113.94 64.06) scale(.2497)" style="fill: inherit;"></path><path d="m41.737-154.36c8.6614 0.77895 218.44 3.2334 281.74 72.264-109.52-34.337-169.36-39.422-278.88-20.835-20.251-17.143-9.9549-34.286-2.8571-51.429z" opacity=".545" transform="translate(113.94 64.06) scale(.2497)" style="fill: inherit;"></path><path d="m168.86-256.55c39.903 30.576 60.816 63.219 61.68 99.725h-117.14c4.319-38.701 8.815-62.507 55.463-99.725z" opacity=".545" transform="translate(113.94 64.06) scale(.2497)" style="fill: inherit;"></path><path d="m29.473 26.657 101.96 95.454h-85.714l8.9607-58.225z" opacity=".545" transform="translate(113.94 64.06) scale(.2497)" style="fill: inherit;"></path><path d="m150.79-25.874h16.608c2.9493 21.218 5.8986 41.35 8.848 43.418 4.6261 3.2436 9.2522-22.865 13.878-43.418h13.985v57.625c-11.111 11.722-20.392 26.496-53.319 1.8589z" opacity=".545" transform="translate(113.94 64.06) scale(.2497)" style="fill: inherit;"></path><path d="m108.39 244.35c-16.271 88.385-25.843 179.09 42.575 249.91 72.832 29.791 145.66 17.294 218.5-11.987 62.797-31.579 125.23-50.86 178.9-32.268 2.8587 10.828 7.2511 21.655-3.0878 32.483-76.22-9.6283-125.18 23.289-184.49 47.48-84.343 40.763-168.69 42.139-253.03 0.99212-61.525-47.652-81.748-133.95-56.764-219.56-22.734 4.6686-68.133 16.341-96.279 10.388 23-33.919 99.936-100.26 153.67-77.438z" opacity=".545" transform="translate(113.94 64.06) scale(.2497)" style="fill: inherit;"></path><path d="m322.71 244.15c10.691 18.756 15.391 37.513 8.9992 56.269l-21.932 19.425c4.5169 37.936 27.89 49.916 59.87 62.495l208.83-0.61773 22.259 13.626c22.781 1.5712 45.793 3.6053 66.743 1.5141 12.193 9.128 9.502 18.256 6.846 27.384-9.0566 12.434-19.902 14.133-30.822 15.385 0.0541 14.41-8.5598 24.485-23.716 31.29-7.5861 4.3378-13.348 1.3795-19.074-1.7226-2.956-14.795-5.9153-29.59-7.0151-44.384l-220.45 1.8701c-56.015-17.413-101.83-43.61-136-84.051-46.018-71.666 32.661-126.45 85.458-98.482z" opacity=".545" transform="translate(113.94 64.06) scale(.2497)" style="fill: inherit;"></path><path d="m-155.13 292.81c52.052-1.3064 63.322 17.571 76.502 42.433 11.404 21.511 6.7917 35.136-3.8505 56.414 14.351-9.9091 39.326-6.7507 48.715 6.1248 15.069 27.173 11.413 70.302-8.5641 105.45-26.2 30.778-60.378 35.842-78.6 31.581 4.4578-18.384 51.338-48.058 32.915-88.706-14.366 19.556-29.345 26.82-43.097 26.45-9.1871-3.5063-10.318-10.465-8.095-18.861 13.756-16.785 26.73-45.324 20.379-68.178-5.3048-19.088-24.394-43.089-43.963-39.998-19.219 3.036-25.376 31.555-28.965 50.678-6.0977 32.491 2.2491 65.392 14.645 98.088 8.7352 23.967 57.229 41.622 44.748 64.676-7.2443 13.381-33.006 4.7026-45.631-1.2274-77.339-47.928-122.54-255.53 22.863-264.93z" opacity=".545" transform="translate(113.94 64.06) scale(.2497)" style="fill: inherit;"></path><path d="m412.42 264.35c9.0012-7.407 18.002-3.739 27.004 0-1.4019 75.519-10.106 81.011-68.736 95.74 13.911-22.941 27.822-53.19 41.733-95.74z" opacity=".545" transform="translate(113.94 64.06) scale(.2497)" style="fill: inherit;"></path><path d="m672.3 571.93c-17.53 9.7734-26.096 5.2038-34.31 0.0723-15.78-18.991-18.491-40.267-52.921-43.273-33.563-0.89058-48.589 13.28-59.816 30.538l74.117 2.2202c2.4741 9.2124 11.467 12.721-0.0375 34.164l-132.9 0.10745c-6.2426-41.204 42.466-81.505 104.01-119.41 40.652 16.48 93.85 64.296 101.86 95.585z" opacity=".545" transform="translate(113.94 64.06) scale(.2497)" style="fill: inherit;"></path><path d="m-412.24 608.92c63.69-62.727 159.48-71.742 252.45-33.281 73.196 25.749 101.81 47.666 133.36 86.201l-157.86-47.897c-57.56-18.105-138.7 18.628-173.92 53.668-31.091 39.296-17.2 130.36 78.587 218.98 46.838 29.138 99.118 39.156 212.81 54.368l212.16 4.4858c72.432 9.0774 82.488 42.412 97.039 73.999-22.456-15.602-33.874-37.09-91.283-34.051l-222.06 11.152c-81.084-4.615-162.17-7.2172-243.25-51.913-182.8-98.472-157.72-268.01-98.037-335.71z" opacity=".545" transform="translate(113.94 64.06) scale(.2497)" style="fill: inherit;"></path><path d="m216.72 596.51c12.579-3.4091 24.5-4.5051 41.425-14.535 9.2542 21.905 11.237 37.33 0.92259 51.9-68.979 67.014-157.57 115.58-239.83 129.46 55.17-47.187 128.95-81.016 197.49-166.82z" opacity=".545" transform="translate(113.94 64.06) scale(.2497)" style="fill: inherit;"></path><path d="m163.9 776.87c0 16.05-14.312 29.06-31.966 29.06s-31.966-13.011-31.966-29.06 14.312-29.06 31.966-29.06 31.966 13.011 31.966 29.06z" opacity=".545" transform="translate(116.843 59.126) scale(.2497)" style="fill: inherit;"></path><path d="m16.274 788.49c88.964 38.032 147.9 31.035 252.24-12.787-81.906 92.221-261.67 97.392-252.24 12.787z" opacity=".545" transform="translate(113.94 64.06) scale(.2497)" style="fill: inherit;"></path><path d="m362.67 759.43c54.812-77.496 110.07-133.48 188.66-147.69 111.82-20.227 210.95 60.725 204.23 161.64-7.5364 113.2-62.378 211.61-137.17 295.25-35.776 40.012-101.85 53.129-137.85 63.483 27.515-31.272 63.483-31.171 101.99-89.923 39.026-80.312 107.17-182.44 102.87-249.11-9.6386-100.18-69.809-126.08-124.31-109.85-62.726 18.671-116.5 74.312-148.96 117.51-46.269 77.574-76.585 232.6-60.721 265.47 28.879 32.547 70.191 23.687 99.599 25.671-29.521 26.551-111.58 47.297-137.56 9.3859-58.327-85.105-0.71171-256.24 49.216-341.84z" opacity=".545" transform="translate(113.94 64.06) scale(.2497)" style="fill: inherit;"></path><path d="m-55.796 1010.5c193.47 37.661 208.1 107.99 234.81 181.34-71.898-50.474-112.58-119.68-239.46-137.16-35.63-15.499-19.134-44.091 4.6497-44.172z" opacity=".545" transform="translate(113.94 64.06) scale(.2497)" style="fill: inherit;"></path><path d="m237.13 1115.1 34.119-43.18c34.002 13.845 31 24.357 20.818 43.112l-17.74 16.341 1.2792 65.733 150.19-3.8417c32.746 18.771 23.676 35.723-0.35327 52.025l-202.26-4.6496c-24.691-46.038-3.2668-85.489 13.949-125.54z" opacity=".545" transform="translate(113.94 64.06) scale(.2497)" style="fill: inherit;"></path><path d="m310.64 26.657-101.96 95.454h85.714l-8.9607-58.225z" opacity=".545" transform="translate(113.94 64.06) scale(.2497)" style="fill: inherit;"></path></g></svg>